<?xml version="1.0" encoding="UTF-8" standalone="no"?>
<svg
   version="1.1"
   id="Layer_1"
   x="0px"
   y="0px"
   width="100%"
   viewBox="0 0 700 661"
   enable-background="new 0 0 700 661"
   xml:space="preserve"
   sodipodi:docname="logo2.svg"
   inkscape:version="1.3.2 (091e20e, 2023-11-25, custom)"
   xmlns:inkscape="http://www.inkscape.org/namespaces/inkscape"
   xmlns:sodipodi="http://sodipodi.sourceforge.net/DTD/sodipodi-0.dtd"
   xmlns="http://www.w3.org/2000/svg"
   xmlns:svg="http://www.w3.org/2000/svg"><defs
   id="defs22" /><sodipodi:namedview
   id="namedview22"
   pagecolor="#ffffff"
   bordercolor="#000000"
   borderopacity="0.25"
   inkscape:showpageshadow="2"
   inkscape:pageopacity="0.0"
   inkscape:pagecheckerboard="0"
   inkscape:deskcolor="#d1d1d1"
   inkscape:zoom="1.2360061"
   inkscape:cx="349.91738"
   inkscape:cy="330.5"
   inkscape:window-width="1920"
   inkscape:window-height="1047"
   inkscape:window-x="-10"
   inkscape:window-y="-10"
   inkscape:window-maximized="1"
   inkscape:current-layer="Layer_1" />

<path
   fill="#707070"
   opacity="1.000000"
   stroke="none"
   d=" M1.000000,208.468658   C1.000000,208.000000 1.466252,208.041992 1.745062,208.451080   C2.008720,220.994873 1.993837,233.129593 1.978369,245.264297   C1.933452,280.502380 1.888301,315.740479 1.632378,350.981842   C1.421515,350.985107 1.000000,351.000000 1.000000,351.000000   C1.000000,303.645782 1.000000,256.291534 1.000000,208.468658  z"
   id="path2" />
<path
   fill="#636363"
   opacity="1.000000"
   stroke="none"
   d=" M1.000000,351.468658   C1.000000,351.000000 1.421515,350.985107 1.696942,351.448303   C1.960082,363.632690 1.947796,375.353882 1.935509,387.075043   C1.935510,387.075043 1.478457,386.904114 1.239228,386.952057   C1.000000,375.312439 1.000000,363.624878 1.000000,351.468658  z"
   id="path3" />
<path
   fill="#020202"
   opacity="1"
   stroke="none"
   d="M 1.973896,387.44891 C 1.947796,375.35388 1.960082,363.63269 1.907806,351.44507 1.888301,315.74048 1.933452,280.50238 1.978369,245.2643 1.993837,233.12959 2.00872,220.99487 1.970683,208.38876 c 2.377343,-10.73475 6.305779,-13.8507 19.356259,-15.62434 0,-10.54176 -0.06582,-21.13892 0.03043,-31.73462 0.04208,-4.63237 -0.09064,-9.35564 0.747023,-13.87238 1.607452,-8.66751 7.430538,-13.11802 16.135435,-13.12478 13.832638,-0.0108 27.665295,-3.2e-4 41.497936,-0.008 0.32621,-1.9e-4 0.652344,-0.11364 1.450913,-0.26206 0.146995,-1.10225 0.457329,-2.34933 0.457382,-3.59642 5.72e-4,-12.66233 -0.06612,-25.32465 -0.08043,-37.986999 -0.01306,-11.556152 6.66787,-18.210235 18.302994,-18.151794 3.487275,0.01751 6.973095,0.323662 10.886455,0.518868 0.0968,-1.609406 0.25417,-3.035546 0.25695,-4.461983 0.0185,-9.49952 -0.01,-18.999123 0.003,-28.498661 0.0174,-12.56164 7.48258,-20.075201 20.14551,-20.193815 8.16424,-0.07648 16.334,0.109275 24.49079,-0.150702 1.54645,-0.04929 4.01398,-1.327389 4.41353,-2.567751 3.96701,-12.315134 13.17479,-16.356024 25.02138,-16.387147 30.66467,-0.08056 61.3295,-0.110887 91.99426,-0.120534 1.81211,-5.7e-4 3.64841,0.231492 5.4325,0.570762 10.62985,2.021413 17.33057,10.126817 17.38437,21.019782 0.0527,10.665968 0.0119,21.33246 0.0832,31.998247 0.0483,7.226772 2.39032,9.505272 9.5784,9.499619 27.99859,-0.02206 55.99719,-0.04936 83.99579,-0.08395 6.00409,-0.0074 8.4263,-2.380336 8.45178,-8.400921 0.0452,-10.665939 0.003,-21.332229 0.0331,-31.998264 0.0378,-13.218381 8.72754,-22.45255 21.98337,-22.530029 31.4971,-0.184097 62.99646,-0.105533 94.49426,0.019299 10.15955,0.040264 18.34851,6.055711 21.28131,15.742656 0.90637,2.993858 2.27124,3.437248 4.89301,3.420807 8.83148,-0.05539 17.66449,0.04249 26.49621,0.143789 11.33301,0.129988 19.43952,7.985106 19.65143,19.257296 0.17859,9.496494 0.0751,18.998295 0.0953,28.497749 0.003,1.632027 4.9e-4,3.264061 4.9e-4,4.713524 3.7622,0 7.05578,-0.0033 10.3493,6.03e-4 11.49146,0.01369 18.57477,7.008049 18.64709,18.628502 0.0789,12.665367 -2.4e-4,25.331717 -0.0104,37.997647 -8e-4,0.97123 -1.8e-4,1.94247 -1.8e-4,3.36723 13.62011,0 26.89624,0.0162 40.17236,-0.004 14.56592,-0.0226 20.81372,6.26044 20.77832,20.87265 -0.0306,12.64105 -0.006,25.28224 -0.006,38.22466 1.70612,0.2231 3.15558,0.39299 4.59888,0.60458 8.76294,1.28462 14.43719,7.36504 14.44824,16.23131 0.0724,58.33015 0.0555,116.66054 -0.0103,174.99074 -0.009,8.10186 -5.5691,14.68872 -13.72126,16.8544 -1.59851,0.42468 -3.22473,0.74536 -5.27044,1.2127 0,11.49506 0.0118,22.94336 -0.003,34.39158 -0.0154,11.62384 -8.08185,19.5227 -19.83362,19.50412 -13.48578,-0.0213 -26.97162,-0.005 -41.10864,-0.005 0,1.89121 0.002,3.65222 -2.4e-4,5.41321 -0.0441,36.16437 -0.0312,72.32904 -0.21613,108.49268 -0.02,3.89679 -0.39813,8.15142 -1.98682,11.60717 -3.53912,7.69879 -9.82702,11.89319 -18.65832,11.55713 -2.46924,-0.094 -4.94507,-0.0143 -8.15357,-0.0143 0,2.99982 -10e-4,5.59485 2.5e-4,8.18994 0.007,11.83277 0.0359,23.66565 0.016,35.49835 -0.0226,13.48462 -8.49609,22.07056 -22.10034,22.07801 -42.82813,0.0234 -85.65631,-0.0369 -128.48432,-0.1305 -6.95465,-0.0152 -14.03241,0.38776 -20.83447,-0.73181 -10.81234,-1.77954 -17.32803,-10.07654 -17.39889,-21.02875 -0.14127,-21.83093 -0.27469,-43.66601 0.029,-65.49322 0.0854,-6.13507 -1.37772,-9.8421 -9.80017,-9.94995 -27.47217,-0.35169 -54.9495,-0.32971 -82.42499,-0.36719 -6.47162,-0.009 -9.94635,3.71454 -9.96567,10.3476 -0.0607,20.83209 -0.0524,41.66449 -0.1387,62.49646 -0.0653,15.76873 -7.92856,24.44793 -23.57229,24.59759 -37.48823,0.35858 -74.98128,0.20715 -112.47236,0.27265 -8.10682,0.0142 -16.2196,0.27783 -24.31808,0.0371 -4.77899,-0.14202 -9.77106,-0.31787 -14.25291,-1.76336 -9.4892,-3.06049 -14.18277,-10.37976 -14.20202,-20.52393 -0.0272,-14.31085 -0.007,-28.62182 -0.007,-43.35235 -2.48845,0 -4.76036,-0.15308 -7.00593,0.0254 -12.554233,0.99749 -22.185131,-7.19208 -22.359569,-19.88074 -0.21743,-15.8161 0.270813,-31.64056 0.318291,-47.46185 0.06942,-23.13245 0.01786,-46.26529 0.01786,-69.84232 -14.328857,0 -27.774681,-0.12802 -41.216484,0.0492 -7.746967,0.10212 -13.746639,-2.80096 -17.109327,-9.73062 -1.531063,-3.15518 -2.228688,-6.97598 -2.319813,-10.5202 -0.286326,-11.13611 -0.105391,-22.28424 -0.105391,-33.69968 -8.873501,-2.0076 -17.27234,-4.67691 -19.269138,-15.62976 M 644.82172,264.16397 c -0.0728,-3.07339 -0.1457,-6.14679 -0.0634,-9.98877 -0.0513,-1.04022 -0.10272,-2.08044 0.079,-4.039 -0.0419,-14.7471 -0.13208,-29.49434 -0.0898,-44.2412 0.01,-3.46177 -1.0199,-5.26085 -4.86267,-5.04315 -4.95581,0.28072 -9.93311,0.17995 -15.55109,-0.0611 -4.37213,-1.64426 -5.6311,-4.78334 -5.55689,-9.38838 0.284,-17.63034 0.20502,-35.26665 0.23255,-52.90077 0.002,-1.24022 -0.23029,-2.48079 -0.35834,-3.76837 -4.24365,0 -8.0675,0.0335 -11.89062,-0.008 -5.24085,-0.057 -10.68201,0.91014 -15.69525,-3.48852 -0.7605,-2.45069 -2.07984,-4.87952 -2.1767,-7.35617 -0.29083,-7.43899 -0.1048,-14.89662 -0.1048,-22.74393 -1.99469,-0.10226 -3.60528,-0.25356 -5.21606,-0.25662 -13.66095,-0.0259 -27.32221,0.0197 -40.98285,-0.0462 -10.64697,-0.0514 -14.77014,-4.23036 -14.82843,-14.867468 -0.0325,-5.931809 -0.006,-11.863938 -0.006,-17.745178 -33.93588,0 -66.9837,0 -100.61139,0 0,7.401619 0.0242,14.362754 -0.007,21.323646 -0.0308,6.905449 -4.59958,11.38301 -11.56494,11.38045 -5.83087,-0.002 -11.66644,0.11301 -17.4909,-0.0875 -3.79548,-0.13062 -4.98804,1.51603 -4.82938,5.10334 0.25751,5.82234 0.26312,11.6574 0.29956,17.48756 0.0482,7.71875 -3.46948,11.2665 -11.21399,11.29343 -19.65854,0.0683 -39.31723,0.11409 -58.97589,0.14021 -8.93741,0.0119 -11.7883,-3.01144 -11.71252,-12.11921 0.0593,-7.12922 0.0119,-14.25933 0.0119,-21.05087 -0.96454,-0.46992 -1.25775,-0.73642 -1.55271,-0.7384 -7.49597,-0.0504 -14.99206,-0.0894 -22.48822,-0.0967 -10.91546,-0.0107 -13.83932,-2.893443 -13.94125,-13.941508 -0.0576,-6.246956 -0.0104,-12.494881 -0.0104,-19.100822 -32.51155,0 -64.14604,0.01514 -95.78047,-0.02677 -2.73485,-0.0036 -3.90837,0.962036 -3.79295,3.818466 0.18818,4.658051 0.1192,9.327378 0.11989,13.991944 0.002,10.794677 -4.60033,15.24364 -15.62615,15.23115 -13.49463,-0.0153 -26.9947,0.23902 -40.48109,-0.0892 -5.04064,-0.12265 -6.3228,1.68209 -6.03888,6.33931 0.34403,5.64313 0.14491,11.32498 0.0493,16.98786 -0.11592,6.86889 -3.72298,10.37626 -10.53882,10.3965 -6.276811,0.0187 -12.55372,0.004 -19.355821,0.004 0,2.47952 0.002,4.27046 -3.2e-4,6.06138 -0.02266,17.32651 -0.01518,34.65315 -0.08534,51.97948 -0.02585,6.38335 -2.087265,8.39357 -8.328628,8.42915 -3.665054,0.0209 -7.341446,0.17487 -10.992638,-0.053 -4.220665,-0.26343 -5.536243,1.67123 -5.4953,5.64244 0.130524,12.66025 0.05176,25.32265 0.05398,37.98422 0.0065,36.81145 0.01299,73.62291 -0.220745,111.35045 -0.01244,9.996 0.11502,19.99512 -0.104512,29.98657 -0.09086,4.13529 1.506226,5.73184 5.530384,5.64414 4.158738,-0.0906 8.327843,0.0752 12.486618,0.25961 5.358613,0.23764 7.087426,2.01828 7.12941,7.41949 0.0544,6.99659 0.103722,13.99784 -0.09665,20.98984 -0.10115,3.52957 1.32695,4.74741 4.718094,4.63516 5.159569,-0.17077 10.328056,-0.0896 15.492728,-0.0843 6.70146,0.007 9.79878,2.9469 9.95313,9.62058 0.13865,5.99518 0.27259,11.99826 0.11021,17.98975 -0.10165,3.75076 1.48322,5.02645 5.05015,4.94165 6.32763,-0.15043 12.6658,0.0829 18.99009,-0.12796 4.3283,-0.14438 6.91825,1.70297 7.90008,6.42678 0.0539,1.4708 0.10789,2.94162 -0.0855,5.15415 0.0834,0.76794 0.16672,1.53586 0.035,3.21588 0.0714,16.01395 0.14287,32.02789 -0.0397,48.94858 0.0852,5.37952 0.17039,10.75897 0.033,17.04846 0.0737,7.75769 0.14734,15.51532 -0.0326,24.1535 0,10.57355 0,21.14704 0,32.02845 6.56665,0 12.37358,-0.1073 18.17494,0.0268 7.5007,0.17322 12.38409,5.12695 12.47661,12.55041 0.0741,5.94373 0.0149,11.88904 0.0149,18.14447 21.70779,0 42.75188,0 64.1642,0 0,-6.00274 0.0563,-11.79229 -0.0131,-17.58026 -0.10489,-8.74957 3.61002,-12.78234 12.46323,-13.08795 5.65764,-0.19531 11.33659,-0.36346 16.98326,-0.0839 3.98096,0.19708 5.08353,-1.11823 5.07117,-5.08185 -0.0769,-24.65033 0.1112,-49.30139 0.20892,-73.95227 0.0296,-7.45645 2.30869,-9.72238 9.85669,-9.72348 44.13971,-0.006 88.27945,-0.009 132.41916,-0.006 9.17071,5.2e-4 11.47211,2.33233 11.48215,11.54538 0.0263,24.15155 0.12072,48.30334 0.0185,72.45434 -0.0153,3.59937 0.85086,5.14063 4.73285,4.91718 5.31286,-0.30579 10.65735,-0.16931 15.98562,-0.0735 7.30576,0.13141 11.61798,4.55786 11.64606,11.81006 0.02,5.16327 -0.12836,10.33215 0.0928,15.48584 0.0507,1.18188 1.31039,2.31189 2.49887,3.63989 0.16491,-0.0483 0.32983,-0.0966 1.41308,0.0629 20.69931,-0.0676 41.39859,-0.13519 62.72785,-0.13165 0.17926,-0.32733 0.35852,-0.65467 0.84985,-1.73688 -0.0408,-6.15582 -0.2149,-12.31549 -0.0408,-18.46521 0.052,-1.83441 0.52765,-4.5069 1.76513,-5.29578 3.48334,-2.22052 7.31769,-4.51855 11.28504,-5.19525 5.13672,-0.8761 10.53589,-0.21368 16.34448,-0.21368 0,-2.44849 0.005,-4.39905 -8.5e-4,-6.34967 -0.12891,-40.96039 -0.26465,-81.92072 -0.383,-122.88117 -0.0182,-6.28238 1.33899,-7.59231 7.58191,-7.64084 7.31738,-0.0568 14.6344,-0.15069 22.48969,-0.11496 0.1416,-0.11642 0.2832,-0.23288 1.15765,-0.60519 0.3302,-1.55365 0.91901,-3.10306 0.94476,-4.66174 0.0992,-5.98792 -0.007,-11.97889 0.0113,-17.9686 0.0182,-5.97824 2.79633,-8.94364 8.70429,-9.10828 5.48755,-0.15295 10.98712,-0.30145 16.46844,-0.0997 3.79352,0.13962 5.41193,-0.91537 5.20581,-5.05084 -0.33087,-6.63895 -0.13043,-13.30673 -0.078,-19.96176 0.0422,-5.34763 2.93573,-8.25928 8.29529,-8.34436 3.82532,-0.0607 7.65332,0.0752 11.47967,0.0493 3.83252,-0.026 6.24872,-1.56579 6.00281,-5.84991 -0.12365,-2.15415 -0.14227,-4.31433 0.0484,-7.38523 0.0211,-20.94439 0.0759,-41.88879 0.0502,-62.83312 -0.0145,-11.79181 -0.16143,-23.58347 -0.0855,-36.28592 -0.0501,-4.65769 -0.10028,-9.31534 0.088,-14.86585 z"
   id="path4"
   style="display:inline" />
<path
   fill="#FEFEFE"
   opacity="1.000000"
   stroke="none"
   d=" M57.389805,354.945923   C57.383301,318.134491 57.376774,281.323029 57.370312,244.511581   C57.368092,231.850006 57.446854,219.187607 57.316330,206.527359   C57.275387,202.556152 58.590965,200.621490 62.811630,200.884918   C66.462822,201.112808 70.139214,200.958801 73.804268,200.937943   C80.045631,200.902359 82.107048,198.892136 82.132896,192.508789   C82.203056,175.182465 82.195580,157.855820 82.218239,140.529312   C82.220581,138.738388 82.218559,136.947449 82.218559,134.467926   C89.020660,134.467926 95.297569,134.482620 101.574379,134.463974   C108.390221,134.443726 111.997284,130.936356 112.113205,124.067474   C112.208771,118.404594 112.407890,112.722740 112.063858,107.079613   C111.779938,102.422394 113.062096,100.617653 118.102737,100.740303   C131.589127,101.068497 145.089203,100.814186 158.583832,100.829483   C169.609650,100.841972 174.211594,96.393005 174.209976,85.598328   C174.209290,80.933762 174.278275,76.264435 174.090088,71.606384   C173.974670,68.749954 175.148193,67.784294 177.883041,67.787918   C209.517471,67.829834 241.151962,67.814690 273.663513,67.814690   C273.663513,74.420631 273.616302,80.668556 273.673920,86.915512   C273.775848,97.963577 276.699707,100.846359 287.615173,100.857018   C295.111328,100.864334 302.607422,100.903343 310.103394,100.953735   C310.398346,100.955711 310.691559,101.222206 311.656097,101.692131   C311.656097,108.483665 311.703491,115.613777 311.644196,122.742996   C311.568420,131.850769 314.419312,134.874084 323.356720,134.862213   C343.015381,134.836090 362.674072,134.790314 382.332611,134.722000   C390.077118,134.695068 393.594849,131.147324 393.546600,123.428574   C393.510162,117.598412 393.504547,111.763351 393.247040,105.941010   C393.088379,102.353699 394.280945,100.707047 398.076416,100.837669   C403.900879,101.038132 409.736450,100.922966 415.567322,100.925117   C422.532684,100.927681 427.101410,96.450119 427.132263,89.544670   C427.163330,82.583778 427.139099,75.622643 427.139099,68.221024   C460.766785,68.221024 493.814606,68.221024 527.750488,68.221024   C527.750488,74.102264 527.723877,80.034393 527.756348,85.966202   C527.814636,96.603310 531.937805,100.782288 542.584778,100.833672   C556.245422,100.899597 569.906677,100.853935 583.567627,100.879868   C585.178406,100.882927 586.789001,101.034233 588.783691,101.136490   C588.783691,108.983795 588.597656,116.441429 588.888489,123.880424   C588.985352,126.357071 590.304688,128.785904 590.847778,131.610962   C590.092896,133.904144 589.089233,135.822083 589.085754,137.741821   C588.997559,186.558487 589.012268,235.375320 589.013123,284.192139   C589.013733,318.014008 589.025146,351.835907 589.020813,385.657776   C589.019958,391.969208 588.953857,391.897522 582.538574,392.068695   C576.408630,392.232208 570.287048,392.688995 564.159180,392.956879   C560.391785,393.121582 558.169556,395.109100 557.921692,398.747467   C557.459839,405.527710 557.139221,412.328033 557.092346,419.122314   C557.062805,423.398560 555.312622,425.198822 551.072998,425.037872   C546.913757,424.880005 542.743774,425.000336 538.578552,425.003784   C530.320129,425.010681 527.997009,427.363220 527.995178,435.732635   C527.986450,476.385529 527.980103,517.038452 527.972107,557.691345   C527.971802,559.024170 528.002563,560.358521 527.950500,561.689514   C527.833374,564.682800 526.486816,566.130127 523.252625,566.081116   C514.257812,565.944885 505.257538,565.935913 496.263550,566.100464   C493.053253,566.159180 491.804626,565.162903 491.912811,561.836914   C492.118530,555.512451 491.975525,549.176453 491.972046,542.845276   C491.968170,535.827087 490.330139,534.023438 483.140228,534.087158   C477.010010,534.141479 470.881866,534.622498 464.756561,534.979309   C460.567017,535.223206 458.860809,533.601624 458.924530,529.151062   C459.148773,513.492798 459.050171,497.829529 459.010132,482.168274   C458.996674,476.901855 456.255280,474.005127 451.190765,474.003143   C383.713623,473.976959 316.236481,473.976868 248.759338,474.010406   C242.845322,474.013367 240.018661,476.990173 240.011398,482.918640   C239.993210,497.746918 240.009094,512.575256 240.015320,527.403564   C240.018082,534.022644 240.022446,534.023132 233.164490,534.026855   C227.166519,534.030151 221.166565,533.937561 215.171173,534.063477   C209.985153,534.172302 208.049393,536.254639 208.023483,541.435974   C207.991013,547.933594 207.848419,554.437378 208.076416,560.927185   C208.216461,564.913391 206.630615,566.196533 202.781128,566.088623   C195.456131,565.883240 188.121124,566.040466 180.790268,566.037659   C173.989456,566.035095 173.987350,566.029724 173.988113,558.985840   C173.992599,517.833069 174.002579,476.680359 173.999298,435.527618   C173.998718,428.102966 170.936646,425.045258 163.380386,425.024139   C148.885406,424.983612 134.390228,425.006927 119.895142,425.004272   C111.980232,425.002838 112.088829,425.001282 111.933060,416.810730   C111.819641,410.847107 111.202103,404.892120 111.123291,398.929138   C111.052681,393.586426 107.884850,392.048553 103.371437,391.976318   C98.041412,391.890930 92.686638,392.240479 87.391060,391.808075   C85.850861,391.682312 83.337387,389.625610 83.218353,388.281464   C82.621315,381.539886 82.263176,374.721283 82.591232,367.967163   C83.049530,358.531708 80.181076,355.023895 70.883743,355.005219   C66.385742,354.996185 61.887783,354.966339 57.389805,354.945923  M550.576477,312.344421   C549.603882,312.178589 548.631592,311.870331 547.658630,311.868134   C531.107239,311.830872 514.555664,311.804260 498.004547,311.872925   C496.599304,311.878754 495.196960,312.576569 493.030457,312.925781   C475.609161,317.417114 465.123169,331.363739 465.142670,350.017029   C465.161560,368.084198 476.843170,383.896515 493.276794,388.048737   C495.039124,388.494019 496.851227,389.036224 498.640228,389.036255   C514.295410,389.036438 530.188904,390.628113 545.554932,388.480133   C575.219788,384.333344 585.894165,354.359863 574.872681,330.872742   C570.322876,321.177002 562.415222,314.563995 550.576477,312.344421  M387.237335,407.072449   C392.180084,405.977692 397.642487,405.874756 401.970581,403.606903   C416.438110,396.026123 423.613617,383.461639 423.868378,367.191620   C424.089905,353.041809 423.903015,338.885101 423.847565,324.731628   C423.809601,315.045013 420.202972,311.396332 410.635773,311.386322   C370.006683,311.343719 329.377594,311.326782 288.748505,311.314270   C286.919891,311.313690 285.063843,311.272217 283.267731,311.552216   C277.942902,312.382355 274.298523,316.470306 274.292725,321.841095   C274.275848,337.491394 273.980652,353.158997 274.646973,368.783447   C274.901123,374.742523 276.668488,380.966064 279.143433,386.436981   C285.449524,400.376770 298.074615,407.863892 312.579620,407.306061   C317.527985,414.900848 324.192352,420.231659 333.442535,420.679016   C344.015625,421.190369 354.686890,421.542572 365.208710,420.672638   C374.222443,419.927338 381.947388,415.624237 387.237335,407.072449  M233.912888,348.588898   C233.653091,327.002747 218.461411,311.841522 196.986191,311.803192   C182.672668,311.777649 168.352997,311.605377 154.048950,311.984619   C149.519119,312.104736 144.713684,313.072479 140.579376,314.891266   C123.980644,322.193268 115.857567,342.277924 121.514023,360.897614   C126.040413,375.797424 140.773682,388.688934 154.490814,388.999084   C169.795013,389.345123 185.113007,389.100220 200.424850,389.057648   C201.727798,389.054016 203.056427,388.737183 204.327911,388.396912   C222.566208,383.516083 233.820587,368.706451 233.912888,348.588898  M254.819992,220.640930   C247.793808,217.813751 240.970566,213.531113 233.691696,212.516144   C223.896805,211.150360 213.708603,211.746216 203.763779,212.492981   C182.843506,214.063873 165.402740,230.272369 163.853058,249.276871   C163.217957,257.065308 163.296906,264.929199 163.391144,272.754669   C163.475082,279.723083 168.497833,284.850983 175.615234,285.615906   C178.090454,285.881897 180.609863,285.807007 183.107834,285.778320   C192.423233,285.671448 197.195786,280.855255 197.225296,271.552216   C197.246857,264.755737 197.229523,257.959137 197.229523,250.763245   C211.482727,250.763245 225.057098,250.763245 239.154297,250.763245   C239.154297,258.259918 239.015732,265.722809 239.194641,273.178101   C239.361908,280.148407 243.890137,285.063416 250.346939,285.747986   C262.118164,286.996002 270.253998,283.398621 271.968872,276.118439   C272.230804,275.006409 272.157349,273.803223 272.152618,272.642578   C272.129608,266.976715 271.959259,261.308868 272.058350,255.645569   C272.309509,241.294800 266.586670,229.879929 254.819992,220.640930  M426.604340,263.131531   C426.643219,266.296356 426.674988,269.461273 426.722382,272.625977   C426.822693,279.326263 430.746857,284.464935 436.378693,285.283752   C448.645050,287.067169 456.845551,283.957855 458.894318,276.630005   C459.287689,275.222992 459.209625,273.662720 459.216034,272.172577   C459.245972,265.214172 459.229309,258.255554 459.229309,250.817871   C473.371033,250.817871 487.073547,250.817871 500.905304,250.817871   C500.905304,258.286804 500.834839,265.611603 500.926971,272.934357   C501.004791,279.115295 505.107910,284.203186 511.220703,285.216431   C514.793335,285.808685 518.517151,285.817841 522.151123,285.641113   C528.997253,285.308197 534.166809,279.742767 534.249756,272.831757   C534.321777,266.835693 533.887634,260.814819 534.281189,254.844742   C535.573608,235.235199 520.582336,217.828217 503.239777,214.306473   C492.156952,212.055893 480.471100,212.248169 469.057922,212.276672   C452.590790,212.317795 440.449310,220.441528 431.774536,234.207718   C426.302094,242.892029 426.346863,252.507492 426.604340,263.131531  z"
   id="path5" />
<path
   fill="#CEE3E1"
   opacity="1.000000"
   stroke="none"
   d=" M57.269684,355.403992   C61.887783,354.966339 66.385742,354.996185 70.883743,355.005219   C80.181076,355.023895 83.049530,358.531708 82.591232,367.967163   C82.263176,374.721283 82.621315,381.539886 83.218353,388.281464   C83.337387,389.625610 85.850861,391.682312 87.391060,391.808075   C92.686638,392.240479 98.041412,391.890930 103.371437,391.976318   C107.884850,392.048553 111.052681,393.586426 111.123291,398.929138   C111.202103,404.892120 111.819641,410.847107 111.933060,416.810730   C112.088829,425.001282 111.980232,425.002838 119.895142,425.004272   C134.390228,425.006927 148.885406,424.983612 163.380386,425.024139   C170.936646,425.045258 173.998718,428.102966 173.999298,435.527618   C174.002579,476.680359 173.992599,517.833069 173.988113,558.985840   C173.987350,566.029724 173.989456,566.035095 180.790268,566.037659   C188.121124,566.040466 195.456131,565.883240 202.781128,566.088623   C206.630615,566.196533 208.216461,564.913391 208.076416,560.927185   C207.848419,554.437378 207.991013,547.933594 208.023483,541.435974   C208.049393,536.254639 209.985153,534.172302 215.171173,534.063477   C221.166565,533.937561 227.166519,534.030151 233.164490,534.026855   C240.022446,534.023132 240.018082,534.022644 240.015320,527.403564   C240.009094,512.575256 239.993210,497.746918 240.011398,482.918640   C240.018661,476.990173 242.845322,474.013367 248.759338,474.010406   C316.236481,473.976868 383.713623,473.976959 451.190765,474.003143   C456.255280,474.005127 458.996674,476.901855 459.010132,482.168274   C459.050171,497.829529 459.148773,513.492798 458.924530,529.151062   C458.860809,533.601624 460.567017,535.223206 464.756561,534.979309   C470.881866,534.622498 477.010010,534.141479 483.140228,534.087158   C490.330139,534.023438 491.968170,535.827087 491.972046,542.845276   C491.975525,549.176453 492.118530,555.512451 491.912811,561.836914   C491.804626,565.162903 493.053253,566.159180 496.263550,566.100464   C505.257538,565.935913 514.257812,565.944885 523.252625,566.081116   C526.486816,566.130127 527.833374,564.682800 527.950500,561.689514   C528.002563,560.358521 527.971802,559.024170 527.972107,557.691345   C527.980103,517.038452 527.986450,476.385529 527.995178,435.732635   C527.997009,427.363220 530.320129,425.010681 538.578552,425.003784   C542.743774,425.000336 546.913757,424.880005 551.072998,425.037872   C555.312622,425.198822 557.062805,423.398560 557.092346,419.122314   C557.139221,412.328033 557.459839,405.527710 557.921692,398.747467   C558.169556,395.109100 560.391785,393.121582 564.159180,392.956879   C570.287048,392.688995 576.408630,392.232208 582.538574,392.068695   C588.953857,391.897522 589.019958,391.969208 589.020813,385.657776   C589.025146,351.835907 589.013733,318.014008 589.013123,284.192139   C589.012268,235.375320 588.997559,186.558487 589.085754,137.741821   C589.089233,135.822083 590.092896,133.904144 591.072754,131.943115   C596.078430,135.635254 601.519592,134.668091 606.760437,134.725113   C610.583557,134.766708 614.407410,134.733246 618.651062,134.733246   C618.779114,136.020828 619.011353,137.261398 619.009399,138.501617   C618.981873,156.135742 619.060852,173.772049 618.776855,191.402390   C618.702637,196.007431 619.961609,199.146515 624.776245,201.318024   C629.585388,202.182419 634.012512,203.118835 638.301514,202.686035   C642.483093,202.264069 643.172974,203.836487 643.148621,207.315048   C643.057495,220.296432 643.052734,233.279266 643.166443,246.260223   C643.180420,247.862411 644.102783,249.456619 644.604248,251.054535   C644.655579,252.094757 644.706970,253.134979 644.339172,254.702515   C644.141113,258.505493 644.362183,261.781158 644.583252,265.056793   C644.633423,269.714478 644.683594,274.372131 644.304932,279.641968   C643.615723,281.008759 643.128540,281.763092 643.127625,282.518036   C643.089600,313.579742 643.080505,344.641479 643.155212,375.703033   C643.157898,376.823883 644.039978,377.942627 644.512268,379.062317   C644.578369,381.219757 644.596985,383.379944 644.720642,385.534088   C644.966553,389.818207 642.550354,391.358032 638.717834,391.384003   C634.891479,391.409912 631.063477,391.274017 627.238159,391.334747   C621.878601,391.419830 618.985046,394.331482 618.942871,399.679108   C618.890442,406.334137 618.690002,413.001923 619.020874,419.640869   C619.226990,423.776337 617.608582,424.831329 613.815063,424.691711   C608.333740,424.489990 602.834167,424.638489 597.346619,424.791443   C591.438660,424.956085 588.660522,427.921478 588.642334,433.899719   C588.624084,439.889435 588.730286,445.880402 588.631042,451.868317   C588.605286,453.427002 588.016479,454.976410 587.199036,456.527283   C586.471375,456.690247 586.230957,456.855988 585.990540,457.021698   C578.673340,457.099518 571.356323,457.193359 564.038940,457.250214   C557.796021,457.298737 556.438843,458.608673 556.457031,464.891052   C556.575378,505.851501 556.711121,546.811829 556.840027,587.772217   C556.846191,589.722839 556.840881,591.673401 556.840881,594.121887   C551.032288,594.121887 545.633118,593.459473 540.496399,594.335571   C536.529053,595.012268 532.694702,597.310303 529.211365,599.530823   C527.973877,600.319702 527.498230,602.992188 527.446228,604.826599   C527.272156,610.976318 527.446289,617.135986 527.086548,623.752258   C526.459778,624.460938 526.233521,624.709229 526.007263,624.957520   C505.307953,625.025146 484.608673,625.092773 463.362488,624.898376   C462.547455,624.732056 462.279266,624.827698 462.011047,624.923340   C461.307800,623.769470 460.048157,622.639465 459.997406,621.457581   C459.776215,616.303894 459.924561,611.135010 459.904572,605.971741   C459.876495,598.719543 455.564270,594.293091 448.258514,594.161682   C442.930237,594.065857 437.585754,593.929382 432.272888,594.235168   C428.390900,594.458618 427.524780,592.917358 427.540039,589.317993   C427.642303,565.166992 427.547882,541.015198 427.521576,516.863647   C427.511536,507.650604 425.210144,505.318787 416.039429,505.318268   C371.899719,505.315735 327.759979,505.317841 283.620270,505.324310   C276.072266,505.325409 273.793152,507.591339 273.763580,515.047791   C273.665863,539.698669 273.477814,564.349731 273.554657,589.000061   C273.567017,592.963684 272.464447,594.278992 268.483490,594.081909   C262.836823,593.802368 257.157867,593.970520 251.500229,594.165833   C242.647018,594.471436 238.932114,598.504211 239.037003,607.253784   C239.106400,613.041748 239.050140,618.831299 239.050140,624.834045   C217.637817,624.834045 196.593735,624.834045 174.885941,624.834045   C174.885941,618.578613 174.945053,612.633301 174.870987,606.689575   C174.778473,599.266113 169.895081,594.312378 162.394379,594.139160   C156.593018,594.005066 150.786087,594.112366 144.219437,594.112366   C144.219437,583.230957 144.219437,572.657471 144.727417,561.393555   C145.444809,553.223083 145.676498,545.743286 145.803040,538.261719   C145.809906,537.855530 144.937668,537.434509 144.474670,537.020447   C144.389465,531.640930 144.304260,526.261475 144.696503,520.282104   C145.442429,519.112732 145.943512,518.544006 145.945419,517.973511   C145.994659,503.234680 146.019073,488.495483 145.932877,473.757050   C145.927505,472.842316 144.982010,471.933075 144.473923,471.021301   C144.390549,470.253357 144.307190,469.485443 144.672485,468.225677   C144.933701,466.110168 144.746246,464.486450 144.558807,462.862762   C143.327469,458.839539 140.737518,456.992188 136.409225,457.136566   C130.084930,457.347443 123.746758,457.114105 117.419128,457.264526   C113.852203,457.349335 112.267326,456.073639 112.368980,452.322876   C112.531357,446.331390 112.397423,440.328308 112.258766,434.333130   C112.104424,427.659454 109.007103,424.719482 102.305641,424.712555   C97.140968,424.707214 91.972481,424.626068 86.812912,424.796844   C83.421768,424.909088 81.993668,423.691254 82.094818,420.161682   C82.295189,413.169678 82.245865,406.168427 82.191467,399.171844   C82.149483,393.770630 80.420670,391.989990 75.062057,391.752350   C70.903282,391.567963 66.734177,391.402100 62.575439,391.492737   C58.551281,391.580444 56.954197,389.983887 57.045055,385.848602   C57.264587,375.857147 57.137131,365.858032 57.269684,355.403992  z"
   id="path6" />
<path
   fill="#B7C4C2"
   opacity="1.000000"
   stroke="none"
   d=" M644.640625,378.605591   C644.039978,377.942627 643.157898,376.823883 643.155212,375.703033   C643.080505,344.641479 643.089600,313.579742 643.127625,282.518036   C643.128540,281.763092 643.615723,281.008759 644.223267,280.097351   C644.657776,291.732269 644.804749,303.523926 644.819214,315.315735   C644.844910,336.260071 644.790161,357.204468 644.640625,378.605591  z"
   id="path7" />
<path
   fill="#B7C4C2"
   opacity="1.000000"
   stroke="none"
   d=" M644.720825,250.595367   C644.102783,249.456619 643.180420,247.862411 643.166443,246.260223   C643.052734,233.279266 643.057495,220.296432 643.148621,207.315048   C643.172974,203.836487 642.483093,202.264069 638.301514,202.686035   C634.012512,203.118835 629.585388,202.182419 625.101196,201.470306   C629.951721,201.031799 634.929016,201.132568 639.884827,200.851852   C643.727600,200.634155 644.757385,202.433228 644.747498,205.895004   C644.705261,220.641861 644.795471,235.389099 644.720825,250.595367  z"
   id="path8" />
<path
   fill="#DEEEEB"
   opacity="1.000000"
   stroke="none"
   d=" M144.366364,471.477356   C144.982010,471.933075 145.927505,472.842316 145.932877,473.757050   C146.019073,488.495483 145.994659,503.234680 145.945419,517.973511   C145.943512,518.544006 145.442429,519.112732 144.823517,519.828735   C144.401657,503.961273 144.330231,487.947327 144.366364,471.477356  z"
   id="path9" />
<path
   fill="#DEEEEB"
   opacity="1.000000"
   stroke="none"
   d=" M144.363358,537.475464   C144.937668,537.434509 145.809906,537.855530 145.803040,538.261719   C145.676498,545.743286 145.444809,553.223083 144.854218,560.953369   C144.399384,553.445740 144.325714,545.688110 144.363358,537.475464  z"
   id="path10" />
<path
   fill="#B7C4C2"
   opacity="1.000000"
   stroke="none"
   d=" M644.702454,264.610382   C644.362183,261.781158 644.141113,258.505493 644.261597,255.086823   C644.676025,258.017181 644.748901,261.090576 644.702454,264.610382  z"
   id="path11" />
<path
   fill="#DEEEEB"
   opacity="1.000000"
   stroke="none"
   d=" M144.434052,463.213074   C144.746246,464.486450 144.933701,466.110168 144.796143,467.854797   C144.417191,466.504974 144.363251,465.034149 144.434052,463.213074  z"
   id="path12" />
<path
   fill="#E6F4F2"
   opacity="1.000000"
   stroke="none"
   d=" M586.259583,457.078491   C586.230957,456.855988 586.471375,456.690247 586.832642,456.655243   C586.811829,456.902374 586.670227,457.018829 586.259583,457.078491  z"
   id="path13" />
<path
   fill="#E4F1F0"
   opacity="1.000000"
   stroke="none"
   d=" M462.253662,625.010376   C462.279266,624.827698 462.547455,624.732056 462.903320,624.794556   C462.826111,625.000854 462.661194,625.049133 462.253662,625.010376  z"
   id="path14" />
<path
   fill="#E4F1F0"
   opacity="1.000000"
   stroke="none"
   d=" M526.322266,624.993103   C526.233521,624.709229 526.459778,624.460938 526.930542,624.129761   C526.995728,624.374023 526.816467,624.701355 526.322266,624.993103  z"
   id="path15" />
<path
   fill="#040303"
   opacity="1.000000"
   stroke="none"
   d=" M311.997925,406.968872   C298.074615,407.863892 285.449524,400.376770 279.143433,386.436981   C276.668488,380.966064 274.901123,374.742523 274.646973,368.783447   C273.980652,353.158997 274.275848,337.491394 274.292725,321.841095   C274.298523,316.470306 277.942902,312.382355 283.267731,311.552216   C285.063843,311.272217 286.919891,311.313690 288.748505,311.314270   C329.377594,311.326782 370.006683,311.343719 410.635773,311.386322   C420.202972,311.396332 423.809601,315.045013 423.847565,324.731628   C423.903015,338.885101 424.089905,353.041809 423.868378,367.191620   C423.613617,383.461639 416.438110,396.026123 401.970581,403.606903   C397.642487,405.874756 392.180084,405.977692 386.860596,406.633545   C386.684479,404.887085 387.052002,403.580597 387.060425,402.271851   C387.170715,385.137970 387.236237,368.003754 387.277161,350.869568   C387.278564,350.278320 386.906403,349.686157 386.771912,349.284302   C361.455750,349.284302 336.427612,349.284302 311.997925,349.284302   C311.997925,368.778137 311.997925,387.873505 311.997925,406.968872  z"
   id="path16" />
<path
   fill="#E57482"
   opacity="1.000000"
   stroke="none"
   d=" M233.913055,349.049866   C233.820587,368.706451 222.566208,383.516083 204.327911,388.396912   C203.056427,388.737183 201.727798,389.054016 200.424850,389.057648   C185.113007,389.100220 169.795013,389.345123 154.490814,388.999084   C140.773682,388.688934 126.040413,375.797424 121.514023,360.897614   C115.857567,342.277924 123.980644,322.193268 140.579376,314.891266   C144.713684,313.072479 149.519119,312.104736 154.048950,311.984619   C168.352997,311.605377 182.672668,311.777649 196.986191,311.803192   C218.461411,311.841522 233.653091,327.002747 233.913055,349.049866  z"
   id="path17" />
<path
   fill="#E47383"
   opacity="1.000000"
   stroke="none"
   d=" M551.244812,312.913513   C562.415222,314.563995 570.322876,321.177002 574.872681,330.872742   C585.894165,354.359863 575.219788,384.333344 545.554932,388.480133   C530.188904,390.628113 514.295410,389.036438 498.640228,389.036255   C496.851227,389.036224 495.039124,388.494019 493.276794,388.048737   C476.843170,383.896515 465.161560,368.084198 465.142670,350.017029   C465.123169,331.363739 475.609161,317.417114 493.900604,312.960236   C513.595459,312.967621 532.420105,312.940582 551.244812,312.913513  z"
   id="path18" />
<path
   fill="#030303"
   opacity="1.000000"
   stroke="none"
   d=" M255.102356,220.861084   C266.586670,229.879929 272.309509,241.294800 272.058350,255.645569   C271.959259,261.308868 272.129608,266.976715 272.152618,272.642578   C272.157349,273.803223 272.230804,275.006409 271.968872,276.118439   C270.253998,283.398621 262.118164,286.996002 250.346939,285.747986   C243.890137,285.063416 239.361908,280.148407 239.194641,273.178101   C239.015732,265.722809 239.154297,258.259918 239.154297,250.763245   C225.057098,250.763245 211.482727,250.763245 197.229523,250.763245   C197.229523,257.959137 197.246857,264.755737 197.225296,271.552216   C197.195786,280.855255 192.423233,285.671448 183.107834,285.778320   C180.609863,285.807007 178.090454,285.881897 175.615234,285.615906   C168.497833,284.850983 163.475082,279.723083 163.391144,272.754669   C163.296906,264.929199 163.217957,257.065308 163.853058,249.276871   C165.402740,230.272369 182.843506,214.063873 203.763779,212.492981   C213.708603,211.746216 223.896805,211.150360 233.691696,212.516144   C240.970566,213.531113 247.793808,217.813751 255.102356,220.861084  z"
   id="path19" />
<path
   fill="#030303"
   opacity="1.000000"
   stroke="none"
   d=" M426.602997,262.667603   C426.346863,252.507492 426.302094,242.892029 431.774536,234.207718   C440.449310,220.441528 452.590790,212.317795 469.057922,212.276672   C480.471100,212.248169 492.156952,212.055893 503.239777,214.306473   C520.582336,217.828217 535.573608,235.235199 534.281189,254.844742   C533.887634,260.814819 534.321777,266.835693 534.249756,272.831757   C534.166809,279.742767 528.997253,285.308197 522.151123,285.641113   C518.517151,285.817841 514.793335,285.808685 511.220703,285.216431   C505.107910,284.203186 501.004791,279.115295 500.926971,272.934357   C500.834839,265.611603 500.905304,258.286804 500.905304,250.817871   C487.073547,250.817871 473.371033,250.817871 459.229309,250.817871   C459.229309,258.255554 459.245972,265.214172 459.216034,272.172577   C459.209625,273.662720 459.287689,275.222992 458.894318,276.630005   C456.845551,283.957855 448.645050,287.067169 436.378693,285.283752   C430.746857,284.464935 426.822693,279.326263 426.722382,272.625977   C426.674988,269.461273 426.643219,266.296356 426.602997,262.667603  z"
   id="path20" />
<path
   fill="#D95E6C"
   opacity="1.000000"
   stroke="none"
   d=" M312.288757,407.137451   C311.997925,387.873505 311.997925,368.778137 311.997925,349.284302   C336.427612,349.284302 361.455750,349.284302 386.771912,349.284302   C386.906403,349.686157 387.278564,350.278320 387.277161,350.869568   C387.236237,368.003754 387.170715,385.137970 387.060425,402.271851   C387.052002,403.580597 386.684479,404.887085 386.433228,406.601776   C381.947388,415.624237 374.222443,419.927338 365.208710,420.672638   C354.686890,421.542572 344.015625,421.190369 333.442535,420.679016   C324.192352,420.231659 317.527985,414.900848 312.288757,407.137451  z"
   id="path21" />
<path
   fill="#c67d8b"
   opacity="1"
   stroke="none"
   d="m 550.91065,312.62897 c -18.49054,0.31161 -37.31519,0.33865 -56.62861,0.34485 0.91492,-0.39725 2.31726,-1.09507 3.72251,-1.1009 16.55111,-0.0687 33.10269,-0.0421 49.65408,-0.005 0.97296,0.002 1.94525,0.31046 3.25202,0.76084 z"
   id="path22"
   style="display:inline" />
</svg>
